<svg xmlns="http://www.w3.org/2000/svg" xmlns:xlink="http://www.w3.org/1999/xlink" width="1080" zoomAndPan="magnify" viewBox="0 0 810 809.999993" height="1080" preserveAspectRatio="xMidYMid meet" version="1.0"><defs><clipPath id="e289ec4944"><path d="M 462 346.679688 L 533 346.679688 L 533 412 L 462 412 Z M 462 346.679688 " clip-rule="nonzero"/></clipPath><clipPath id="f7fc23b73b"><path d="M 311 427 L 337 427 L 337 463.679688 L 311 463.679688 Z M 311 427 " clip-rule="nonzero"/></clipPath><clipPath id="c0102eea9f"><path d="M 341 427 L 349 427 L 349 463.679688 L 341 463.679688 Z M 341 427 " clip-rule="nonzero"/></clipPath><clipPath id="00159357d0"><path d="M 356 427 L 376 427 L 376 463.679688 L 356 463.679688 Z M 356 427 " clip-rule="nonzero"/></clipPath><clipPath id="376604f3fb"><path d="M 379 427 L 402 427 L 402 463.679688 L 379 463.679688 Z M 379 427 " clip-rule="nonzero"/></clipPath><clipPath id="4307394069"><path d="M 405 427 L 429 427 L 429 463.679688 L 405 463.679688 Z M 405 427 " clip-rule="nonzero"/></clipPath><clipPath id="45ff8e6485"><path d="M 433 427 L 459 427 L 459 463.679688 L 433 463.679688 Z M 433 427 " clip-rule="nonzero"/></clipPath><clipPath id="1911c9176f"><path d="M 463 427 L 495 427 L 495 463.679688 L 463 463.679688 Z M 463 427 " clip-rule="nonzero"/></clipPath></defs><rect x="-81" width="972" fill="#ffffff" y="-80.999999" height="971.999992" fill-opacity="1"/><rect x="-81" width="972" fill="#ffffff" y="-80.999999" height="971.999992" fill-opacity="1"/><path fill="#d5a62a" d="M 243.183594 442.058594 L 299.949219 442.058594 L 299.949219 448.394531 L 243.183594 448.394531 Z M 243.183594 442.058594 " fill-opacity="1" fill-rule="nonzero"/><path fill="#d5a62a" d="M 504.78125 442.058594 L 561.546875 442.058594 L 561.546875 448.394531 L 504.78125 448.394531 Z M 504.78125 442.058594 " fill-opacity="1" fill-rule="nonzero"/><path fill="#ee2f24" d="M 266.371094 369.484375 L 280.636719 369.484375 L 280.636719 348.023438 L 303.8125 348.023438 L 303.8125 410.628906 L 280.636719 410.628906 L 280.636719 389.164062 L 266.371094 389.164062 L 266.371094 410.628906 L 243.183594 410.628906 L 243.183594 348.023438 L 266.371094 348.023438 Z M 266.371094 369.484375 " fill-opacity="1" fill-rule="nonzero"/><path fill="#ee2f24" d="M 379.148438 410.628906 L 353.289062 410.628906 L 351.511719 401.6875 L 339.917969 401.6875 L 338.132812 410.628906 L 312.273438 410.628906 L 330.550781 348.023438 L 360.871094 348.023438 C 360.960938 348.375 379.148438 410.628906 379.148438 410.628906 Z M 348.835938 387.371094 L 345.71875 371.273438 L 342.597656 387.371094 Z M 348.835938 387.371094 " fill-opacity="1" fill-rule="nonzero"/><path fill="#ee2f24" d="M 410.800781 382.902344 L 410.800781 410.628906 L 387.613281 410.628906 L 387.613281 348.023438 L 413.472656 348.023438 L 428.625 375.75 L 428.625 348.023438 L 451.808594 348.023438 L 451.808594 410.628906 L 425.953125 410.628906 Z M 410.800781 382.902344 " fill-opacity="1" fill-rule="nonzero"/><g clip-path="url(#e289ec4944)"><path fill="#ee2f24" d="M 497.726562 411.972656 C 477.222656 411.972656 462.957031 397.660156 462.957031 379.324219 C 462.957031 360.988281 477.214844 346.679688 497.726562 346.679688 C 518.238281 346.679688 532.496094 360.988281 532.496094 379.320312 C 532.496094 397.648438 518.230469 411.972656 497.726562 411.972656 Z M 497.726562 368.585938 C 492.378906 368.585938 487.921875 373.058594 487.921875 379.320312 C 487.921875 385.585938 492.378906 390.050781 497.726562 390.050781 C 503.074219 390.050781 507.53125 385.585938 507.53125 379.320312 C 507.53125 373.058594 503.074219 368.585938 497.726562 368.585938 Z M 497.726562 368.585938 " fill-opacity="1" fill-rule="nonzero"/></g><path fill="#ee2f24" d="M 543.628906 348.023438 L 566.816406 348.023438 L 566.816406 410.628906 L 543.628906 410.628906 Z M 543.628906 348.023438 " fill-opacity="1" fill-rule="nonzero"/><g clip-path="url(#f7fc23b73b)"><path fill="#d5a62a" d="M 311.734375 427.429688 L 319.328125 427.429688 L 322.585938 444.578125 C 323.101562 447.222656 323.714844 451.675781 324.078125 454.679688 L 324.285156 454.679688 C 324.648438 451.675781 325.269531 447.222656 325.789062 444.578125 L 329.042969 427.429688 L 336.636719 427.429688 L 328.058594 463.691406 L 320.3125 463.691406 Z M 311.734375 427.429688 " fill-opacity="1" fill-rule="nonzero"/></g><g clip-path="url(#c0102eea9f)"><path fill="#d5a62a" d="M 341.289062 427.429688 L 348.625 427.429688 L 348.625 463.691406 L 341.289062 463.691406 Z M 341.289062 427.429688 " fill-opacity="1" fill-rule="nonzero"/></g><g clip-path="url(#00159357d0)"><path fill="#d5a62a" d="M 375.484375 456.699219 L 375.484375 463.691406 L 356.324219 463.691406 L 356.324219 427.429688 L 374.96875 427.429688 L 374.96875 434.421875 L 363.660156 434.421875 L 363.660156 441.9375 L 373.9375 441.9375 L 373.9375 448.667969 L 363.660156 448.667969 L 363.660156 456.699219 Z M 375.484375 456.699219 " fill-opacity="1" fill-rule="nonzero"/></g><g clip-path="url(#376604f3fb)"><path fill="#d5a62a" d="M 401.066406 434.421875 L 393.988281 434.421875 L 393.988281 463.691406 L 386.449219 463.691406 L 386.449219 434.421875 L 379.367188 434.421875 L 379.367188 427.429688 L 401.066406 427.429688 Z M 401.066406 434.421875 " fill-opacity="1" fill-rule="nonzero"/></g><g clip-path="url(#4307394069)"><path fill="#d5a62a" d="M 428.863281 427.429688 L 428.863281 463.691406 L 421.632812 463.691406 L 415.542969 449.65625 L 412.289062 440.800781 L 412.132812 440.957031 C 412.703125 445.511719 413.066406 452.296875 413.066406 456.335938 L 413.066406 463.691406 L 405.835938 463.691406 L 405.835938 427.429688 L 413.066406 427.429688 L 419.925781 443.183594 C 420.804688 445.460938 421.632812 447.84375 422.515625 450.125 L 422.671875 449.96875 C 422.050781 445.410156 421.632812 439.195312 421.632812 435.824219 L 421.632812 427.429688 Z M 428.863281 427.429688 " fill-opacity="1" fill-rule="nonzero"/></g><g clip-path="url(#45ff8e6485)"><path fill="#d5a62a" d="M 449.945312 457.6875 L 442.300781 457.6875 L 441.117188 463.699219 L 433.523438 463.699219 L 442.203125 427.4375 L 450.050781 427.4375 L 458.730469 463.699219 L 451.136719 463.699219 Z M 448.503906 450.6875 L 447.679688 446.546875 C 447.207031 443.953125 446.59375 439.554688 446.230469 436.597656 L 446.023438 436.597656 C 445.660156 439.554688 445.097656 443.953125 444.582031 446.546875 L 443.757812 450.6875 Z M 448.503906 450.6875 " fill-opacity="1" fill-rule="nonzero"/></g><g clip-path="url(#1911c9176f)"><path fill="#d5a62a" d="M 494.484375 427.429688 L 494.484375 463.691406 L 487.3125 463.691406 L 487.3125 454.785156 C 487.511719 450.382812 487.675781 445.980469 487.875 441.570312 L 487.617188 441.46875 L 484.367188 451 L 482.5625 455.921875 L 475.332031 455.921875 L 473.527344 451 L 470.269531 441.46875 L 470.011719 441.570312 C 470.171875 445.972656 470.375 450.382812 470.535156 454.785156 L 470.535156 463.691406 L 463.402344 463.691406 L 463.402344 427.429688 L 470.792969 427.429688 L 476.472656 441.164062 C 477.195312 442.972656 478.433594 446.136719 478.851562 447.480469 L 479.054688 447.480469 C 479.46875 446.136719 480.710938 442.972656 481.433594 441.164062 L 487.113281 427.429688 Z M 494.484375 427.429688 " fill-opacity="1" fill-rule="nonzero"/></g></svg>